Coordinates
version=1
nRows=19
nColumns=33
inDegrees=yes

Units are S.I. units (second, meters, Newtons, ...)
Angles are in degrees.

endheader
time	ground_thorax_rot_x	ground_thorax_rot_y	ground_thorax_rot_z	ground_thorax_tx	ground_thorax_ty	ground_thorax_tz	clav_prot_r	clav_elev_r	scapula_abduction_r	scapula_elevation_r	scapula_upward_rot_r	scapula_winging_r	shoulder_elv_r	plane_of_elev_r	axial_rot_r	elbow_flexion_r	pro_sup_r	wrist_flex_r	wrist_dev_r	clav_prot_l	clav_elev_l	scapula_abduction_l	scapula_elevation_l	scapula_upward_rot_l	scapula_winging_l	shoulder_elv_l	plane_of_elev_l	axial_rot_l	elbow_flexion_l	pro_sup_l	wrist_flex_l	wrist_dev_l	
6.5100	29.419440	24.657021	36.430685	-36.476027	804.816573	-44.185999	12.628309	34.800444	24.052105	45.000000	-45.000000	-1164.362491	-2446.151664	23.185086	180.000000	365.077989	-170.186020	14.394720	13.588548	-10.187565	-45.000000	-38.467099	45.000000	-45.000000	-3495.377012	1518.045093	25.329167	26.703926	1790.551121	45.667724	12.734107	-17.328883	
6.5200	29.488752	24.483419	36.244980	-38.338591	806.779761	-44.312062	12.639108	34.768895	24.091907	45.000000	-45.000000	-1164.529613	-2446.117913	23.217178	180.000000	365.052761	-170.555828	14.478145	13.637102	-10.107022	-45.000000	-38.542909	45.000000	-45.000000	-3495.316709	1518.124996	25.378097	26.988261	1790.503338	45.185755	12.862684	-17.347907	
6.5300	29.553159	24.315633	36.064516	-40.149611	808.789157	-44.448623	12.655521	34.733505	24.129297	45.000000	-45.000000	-1164.694820	-2446.086103	23.241810	180.000000	365.017410	-170.968884	14.562641	13.678742	-10.034301	-45.000000	-38.617718	45.000000	-45.000000	-3495.271895	1518.218801	25.418850	27.274386	1790.453196	44.685394	12.985830	-17.360376	
6.5400	29.609320	24.156594	35.895475	-41.906509	810.842265	-44.594030	12.673413	34.694476	24.159920	45.000000	-45.000000	-1164.858139	-2446.053476	23.261161	180.000000	364.975965	-171.429926	14.645798	13.714828	-9.954805	-45.000000	-38.699327	45.000000	-45.000000	-3495.230676	1518.318793	25.456319	27.561761	1790.401303	44.171674	13.104839	-17.369203	
6.5500	29.667064	23.997405	35.724630	-43.607806	812.936892	-44.746776	12.692512	34.656327	24.192855	45.000000	-45.000000	-1165.023659	-2446.021933	23.281625	180.000000	364.929304	-171.939663	14.728555	13.750103	-9.878383	-45.000000	-38.779984	45.000000	-45.000000	-3495.194422	1518.423053	25.496472	27.850762	1790.350539	43.652754	13.223377	-17.382100	
6.5600	29.729179	23.835227	35.551373	-45.252474	815.070411	-44.905677	12.708101	34.619345	24.229980	45.000000	-45.000000	-1165.192038	-2445.987366	23.309514	180.000000	364.883598	-172.497288	14.809549	13.788975	-9.791157	-45.000000	-38.865072	45.000000	-45.000000	-3495.150713	1518.519477	25.546432	28.147433	1790.303903	43.138317	13.344041	-17.405808	
6.5700	29.802472	23.665202	35.366392	-46.840322	817.240123	-45.069987	12.723184	34.584926	24.277193	45.000000	-45.000000	-1165.364416	-2445.952147	23.347290	180.000000	364.838524	-173.099585	14.889041	13.832973	-9.704723	-45.000000	-38.944281	45.000000	-45.000000	-3495.106218	1518.611191	25.606981	28.447374	1790.265008	42.638267	13.466310	-17.444593	
6.5800	29.875961	23.498633	35.184384	-48.371215	819.442396	-45.239387	12.737279	34.547471	24.320731	45.000000	-45.000000	-1165.532943	-2445.911347	23.389490	180.000000	364.794854	-173.746021	14.962504	13.877095	-9.604050	-45.000000	-39.027353	45.000000	-45.000000	-3495.055721	1518.699534	25.673363	28.747034	1790.232830	42.159461	13.583571	-17.492117	
6.5900	29.953047	23.332598	35.002425	-49.845276	821.672827	-45.413926	12.751241	34.514757	24.376222	45.000000	-45.000000	-1165.701942	-2445.875602	23.432466	180.000000	364.755065	-174.430478	15.030655	13.920839	-9.507355	-45.000000	-39.108598	45.000000	-45.000000	-3495.005030	1518.787050	25.739084	29.040910	1790.210262	41.707708	13.694813	-17.551830	
6.6000	30.031186	23.171328	34.823352	-51.262747	823.926064	-45.593915	12.762299	34.480729	24.437400	45.000000	-45.000000	-1165.868047	-2445.841928	23.473983	180.000000	364.716551	-175.145715	15.092956	13.964397	-9.400544	-45.000000	-39.190864	45.000000	-45.000000	-3494.949047	1518.872761	25.807499	29.331342	1790.194197	41.287312	13.799325	-17.622230	
6.6100	30.108264	23.020356	34.648258	-52.623798	826.195439	-45.779705	12.771609	34.444122	24.496446	45.000000	-45.000000	-1166.028447	-2445.810047	23.513630	180.000000	364.676540	-175.884962	15.148710	14.006355	-9.286265	-45.000000	-39.275791	45.000000	-45.000000	-3494.889080	1518.958330	25.878127	29.609846	1790.184005	40.899926	13.896385	-17.702009	
6.6200	30.183715	22.880633	34.477420	-53.928640	828.473170	-45.971489	12.781663	34.406119	24.549464	45.000000	-45.000000	-1166.182661	-2445.779020	23.552661	180.000000	364.631835	-176.636219	15.198567	14.043230	-9.167648	-45.000000	-39.364394	45.000000	-45.000000	-3494.828450	1519.045852	25.946040	29.875270	1790.177983	40.545667	13.982961	-17.788627	
6.6300	30.260004	22.750471	34.308838	-55.177398	830.750261	-46.168991	12.790158	34.368524	24.602701	45.000000	-45.000000	-1166.331880	-2445.752488	23.589904	180.000000	364.581780	-177.384079	15.245636	14.074476	-9.045446	-45.000000	-39.456785	45.000000	-45.000000	-3494.765444	1519.132469	26.011026	30.124610	1790.176811	40.225003	14.059422	-17.883851	
6.6400	30.336057	22.629443	34.145356	-56.370500	833.017385	-46.371306	12.795210	34.327376	24.650591	45.000000	-45.000000	-1166.473737	-2445.725625	23.627391	180.000000	364.522660	-178.115271	15.292098	14.099977	-8.910846	-45.000000	-39.550202	45.000000	-45.000000	-3494.696466	1519.218227	26.076288	30.356025	1790.177332	39.938000	14.126969	-17.986967	
6.6500	30.410707	22.521283	33.988796	-57.508204	835.264509	-46.576715	12.796887	34.279533	24.688436	45.000000	-45.000000	-1166.604911	-2445.694659	23.663246	180.000000	364.454781	-178.819567	15.338542	14.119318	-8.761349	-45.000000	-39.646928	45.000000	-45.000000	-3494.620131	1519.301838	26.143739	30.566090	1790.178815	39.684407	14.185632	-18.096735	
6.6600	30.495426	22.412894	33.829627	-58.590786	837.481642	-46.782762	12.801789	34.245158	24.743462	45.000000	-45.000000	-1166.740287	-2445.673205	23.702025	180.000000	364.384646	-179.480059	15.390047	14.130791	-8.633666	-45.000000	-39.735061	45.000000	-45.000000	-3494.550908	1519.384267	26.197688	30.759176	1790.186085	39.464804	14.234108	-18.221286	
6.6700	30.590229	22.307262	33.665822	-59.618384	839.658938	-46.986443	12.805383	34.215940	24.816049	45.000000	-45.000000	-1166.877644	-2445.661141	23.736047	180.000000	364.309749	-180.084395	15.450173	14.136845	-8.513614	-45.000000	-39.817476	45.000000	-45.000000	-3494.483823	1519.462202	26.246115	30.940846	1790.199370	39.282626	14.272872	-18.361362	
6.6800	30.692599	22.206662	33.500540	-60.591105	841.786757	-47.184500	12.809303	34.195154	24.898729	45.000000	-45.000000	-1167.018699	-2445.656739	23.770225	180.000000	364.229740	-180.627973	15.519728	14.137038	-8.405989	-45.000000	-39.892789	45.000000	-45.000000	-3494.420985	1519.536212	26.287184	31.106495	1790.218809	39.140907	14.301746	-18.517536	
6.6900	30.794964	22.119758	33.340060	-61.508871	843.855105	-47.373702	12.810722	34.170404	24.973000	45.000000	-45.000000	-1167.152837	-2445.651103	23.800796	180.000000	364.141552	-181.112410	15.596795	14.132431	-8.290797	-45.000000	-39.968166	45.000000	-45.000000	-3494.354931	1519.604824	26.329186	31.251715	1790.241323	39.043448	14.320233	-18.685265	
